<svg width="117" height="48" fill="none" xmlns="http://www.w3.org/2000/svg"><path d="M42.068 4.561S39.433 0 34.166 0H17.438S12.17 0 9.535 4.561L1.171 19.05s-2.635 4.562 0 9.123l8.364 14.488s2.635 4.564 7.903 4.564h16.728s5.268 0 7.902-4.564l8.363-14.488s2.635-4.561 0-9.123L42.068 4.561z" fill="#FFCA61"/><path d="M29.158 10.494h-2.01l-8.392 8.39a399.41 399.41 0 0 1 1.776 4.594l11.472-11.471c-.609-1.116-1.583-1.547-2.846-1.513zM33.688 15.561L22.231 27.046c.375.297.846.457 1.451.459.103.002 1.42.008 2.138.014.718-.006 2.034-.012 2.138-.014.021 0 .037-.007.06-.007l2.52-2.519c.981-2.592 1.961-5.185 2.996-7.756a2.787 2.787 0 0 0 .154-1.662z" fill="#fff"/><path d="M31.27 37.917a2.55 2.55 0 0 0-.5-.572.802.802 0 0 0-.55-.188c-.199.006-.47.125-.813.356l-1.632 1.096c-.022.01-.052.014-.073.023-.129.063-.215.181-.263.351-.048.17-.072.396-.072.676v1.593c-.45.178-.954.271-1.515.271-.805 0-1.525-.319-2.162-.962-.635-.641-.954-1.42-.954-2.336 0-.916.313-1.658.938-2.226.624-.567 1.341-.851 2.147-.851.613 0 1.144.145 1.59.438.443.289.768.437.97.437.337 0 .713-.279 1.127-.843.243-.34.365-.639.365-.898 0-.258-.143-.493-.429-.705-1.11-.826-2.294-1.24-3.545-1.24-1.61 0-3.008.562-4.196 1.691-1.186 1.129-1.78 2.536-1.78 4.221 0 1.684.583 3.123 1.748 4.315 1.166 1.192 2.54 1.786 4.117 1.786 1.78 0 3.116-.459 4.006-1.383.295-.307.445-.629.445-.969v-1.654l.646-.435c.308-.207.52-.389.632-.54a.621.621 0 0 0 .161-.357 1.209 1.209 0 0 0-.07-.451c-.058-.18-.172-.392-.338-.644zM35.016 10.12c.732-.068 1.021-.521 1.013-1.227-.01-.965-.003-1.93-.003-2.896V3.101c0-.659-.298-1.089-.97-1.165-.72-.082-1.233.297-1.255.979-.062 2.06-.067 4.126-.014 6.188.02.667.495 1.083 1.23 1.017zM15.578 8.907c0 .703.324 1.152 1.043 1.212.796.066 1.201-.429 1.218-1.138.043-1.964.04-3.928 0-5.891-.014-.715-.423-1.201-1.21-1.159-.794.042-1.064.55-1.055 1.286.012.93.003 1.863.003 2.795l.001 2.895zM33.843 10.626c-.804-1.51-2.08-2.312-3.804-2.318-.273-.002-3.023-.001-4.053-.001h-.37c-1.029 0-3.779-.001-4.053.001-1.723.007-3 .809-3.803 2.318-.609 1.147-1.173 2.318-1.739 3.486-.55 1.14-.592 2.329-.167 3.503a572.213 572.213 0 0 0 3.422 9.271c.806 2.115 2.388 3.125 4.662 3.028.028 0 .058.007.087.007h.53c.003.312.004.623.013.937.02.636.552 1.028 1.365.965.813-.062 1.135-.495 1.126-1.162-.002-.247 0-.493 0-.739h.518c.03 0 .06-.006.088-.006 2.273.096 3.855-.912 4.662-3.027a599.271 599.271 0 0 0 3.422-9.271c.425-1.174.383-2.363-.167-3.503-.567-1.171-1.13-2.342-1.739-3.489zm-.328 6.597c-1.168 2.9-2.266 5.83-3.376 8.752-.39 1.025-1.079 1.524-2.199 1.529-.104.002-1.42.008-2.138.012-.719-.004-2.034-.01-2.138-.012-1.12-.005-1.81-.504-2.199-1.529-1.11-2.922-2.208-5.853-3.376-8.752-.418-1.041-.19-1.896.275-2.844.488-.992.774-1.402 1.156-2.199.601-1.252 1.616-1.722 2.945-1.687H29.14c1.33-.035 2.344.435 2.944 1.687.383.797.668 1.207 1.156 2.199.466.948.694 1.803.275 2.844z" fill="#000"/><path d="M73.722 24.921c.13-.154.2-.307.211-.46.01-.158-.02-.352-.094-.586-.074-.23-.22-.506-.438-.83a3.36 3.36 0 0 0-.646-.74 1.052 1.052 0 0 0-.71-.244c-.258.008-.607.162-1.05.461l-2.112 1.416c-.027.014-.066.018-.095.031-.165.084-.278.234-.339.455-.062.216-.094.507-.094.873v2.06a5.354 5.354 0 0 1-1.957.348c-1.043 0-1.975-.414-2.797-1.243-.82-.828-1.23-1.835-1.23-3.021s.404-2.143 1.211-2.877c.81-.732 1.732-1.1 2.773-1.1.795 0 1.48.189 2.057.566.574.375.992.564 1.252.564.438 0 .924-.363 1.46-1.088.313-.439.472-.826.472-1.162 0-.336-.186-.639-.555-.914-1.438-1.068-2.965-1.604-4.583-1.604-2.08 0-3.89.73-5.424 2.189-1.533 1.457-2.3 3.277-2.3 5.455s.754 4.037 2.26 5.576c1.506 1.541 3.281 2.314 5.32 2.314 2.304 0 4.027-.596 5.18-1.789.383-.398.574-.812.574-1.254v-2.135l.837-.562c.4-.268.67-.502.817-.699zm9.438-3.448c0 .605-.199 1.061-.6 1.367-.4.305-.804.453-1.206.453h-2.65v-3.666h2.61c.43 0 .845.156 1.245.467.402.311.601.772.601 1.379zm3.502 7.11a155.527 155.527 0 0 1-1.406-3.256c1.035-1.01 1.55-2.295 1.55-3.854 0-.898-.178-1.715-.533-2.447-.362-.732-.816-1.314-1.37-1.74-1.147-.885-2.328-1.324-3.548-1.324H76.88c-.883 0-1.424.184-1.617.557a1.634 1.634 0 0 0-.193.549c-.02.16-.03.398-.03.715v11.501c0 .488.04.846.121 1.08.168.51.731.766 1.7.766.884 0 1.423-.188 1.613-.559.113-.207.18-.393.2-.549.02-.16.03-.396.03-.717v-2.344h2.61l.645-.041c.938 2.237 1.478 3.487 1.616 3.754.08.135.208.274.384.405.171.125.392.195.661.195.27 0 .624-.099 1.068-.293.854-.359 1.283-.802 1.283-1.324.003-.221-.098-.58-.309-1.074zm13.08.455c1.132-1.494 1.698-3.15 1.698-4.975v-6.26c0-.482-.043-.844-.123-1.076-.06-.193-.145-.338-.271-.434-.123-.1-.303-.184-.538-.252-.237-.07-.552-.104-.94-.104-.394 0-.725.041-.984.123a1.065 1.065 0 0 0-.604.457c-.14.221-.205.6-.205 1.141v6.344c0 .977-.252 1.84-.748 2.588-.498.748-1.252 1.119-2.262 1.119-.564 0-1.054-.115-1.47-.355a2.313 2.313 0 0 1-.935-.93 4.997 4.997 0 0 1-.62-2.404v-6.217c0-.553-.079-.986-.25-1.307-.093-.203-.276-.352-.534-.436-.266-.082-.617-.123-1.06-.123-.442 0-.794.041-1.057.123-.264.084-.45.232-.562.436a1.545 1.545 0 0 0-.193.551 6.108 6.108 0 0 0-.033.734v6.238c0 1.852.56 3.51 1.678 4.977.54.718 1.244 1.298 2.106 1.74.861.44 1.821.662 2.878.662 1.057 0 2.021-.222 2.893-.654.87-.435 1.584-1.003 2.136-1.706zm10.107-4.19l.248.514h-3.252l.42-.869 1.193-2.482 1.029 2.096.082.176.28.565zm6.235 4.811c0-.236-.116-.588-.351-1.059l-5.596-11.564c-.361-.719-.912-1.074-1.66-1.074-.344 0-.67.094-.98.289a1.741 1.741 0 0 0-.691.766L101.207 28.6c-.237.472-.354.822-.354 1.06 0 .496.399.938 1.205 1.324.467.233.842.354 1.104.354.269 0 .491-.065.663-.199.173-.133.297-.26.378-.381.075-.125.18-.324.317-.604l.508-1.045h-.006l.084-.174h6.726l.062.127.084.172.441.92c.135.279.243.484.318.621.076.143.199.273.378.396.171.123.392.186.659.186.271 0 .642-.119 1.11-.352.801-.397 1.2-.85 1.2-1.346z" fill="#fff"/><path d="M42.068 4.561S39.433 0 34.166 0H17.438S12.17 0 9.535 4.561L1.171 19.05s-2.635 4.562 0 9.123l8.364 14.488s2.635 4.564 7.903 4.564h16.728s5.268 0 7.902-4.564l8.363-14.488s2.635-4.561 0-9.123L42.068 4.561z" fill="#E8A34D"/><path d="M29.158 10.494h-2.01l-8.392 8.39a399.41 399.41 0 0 1 1.776 4.594l11.472-11.471c-.609-1.116-1.583-1.547-2.846-1.513zM33.688 15.561L22.231 27.046c.375.297.846.457 1.451.459.103.002 1.42.008 2.138.014.718-.006 2.034-.012 2.138-.014.021 0 .037-.007.06-.007l2.52-2.519c.981-2.592 1.961-5.185 2.996-7.756a2.787 2.787 0 0 0 .154-1.662z" fill="#fff"/><path d="M31.27 37.917a2.55 2.55 0 0 0-.5-.572.802.802 0 0 0-.55-.188c-.199.006-.47.125-.813.356l-1.632 1.096c-.022.01-.052.014-.073.023-.129.063-.215.181-.263.351-.048.17-.072.396-.072.676v1.593c-.45.178-.954.271-1.515.271-.805 0-1.525-.319-2.162-.962-.635-.641-.954-1.42-.954-2.336 0-.916.313-1.658.938-2.226.624-.567 1.341-.851 2.147-.851.613 0 1.144.145 1.59.438.443.289.768.437.97.437.337 0 .713-.279 1.127-.843.243-.34.365-.639.365-.898 0-.258-.143-.493-.429-.705-1.11-.826-2.294-1.24-3.545-1.24-1.61 0-3.008.562-4.196 1.691-1.186 1.129-1.78 2.536-1.78 4.221 0 1.684.583 3.123 1.748 4.315 1.166 1.192 2.54 1.786 4.117 1.786 1.78 0 3.116-.459 4.006-1.383.295-.307.445-.629.445-.969v-1.654l.646-.435c.308-.207.52-.389.632-.54a.621.621 0 0 0 .161-.357 1.209 1.209 0 0 0-.07-.451c-.058-.18-.172-.392-.338-.644zM35.016 10.12c.732-.068 1.021-.521 1.013-1.227-.01-.965-.003-1.93-.003-2.896V3.101c0-.659-.298-1.089-.97-1.165-.72-.082-1.233.297-1.255.979-.062 2.06-.067 4.126-.014 6.188.02.667.495 1.083 1.23 1.017zM15.578 8.907c0 .703.324 1.152 1.043 1.212.796.066 1.201-.429 1.218-1.138.043-1.964.04-3.928 0-5.891-.014-.715-.423-1.201-1.21-1.159-.794.042-1.064.55-1.055 1.286.012.93.003 1.863.003 2.795l.001 2.895zM33.843 10.626c-.804-1.51-2.08-2.312-3.804-2.318-.273-.002-3.023-.001-4.053-.001h-.37c-1.029 0-3.779-.001-4.053.001-1.723.007-3 .809-3.803 2.318-.609 1.147-1.173 2.318-1.739 3.486-.55 1.14-.592 2.329-.167 3.503a572.213 572.213 0 0 0 3.422 9.271c.806 2.115 2.388 3.125 4.662 3.028.028 0 .058.007.087.007h.53c.003.312.004.623.013.937.02.636.552 1.028 1.365.965.813-.062 1.135-.495 1.126-1.162-.002-.247 0-.493 0-.739h.518c.03 0 .06-.006.088-.006 2.273.096 3.855-.912 4.662-3.027a599.271 599.271 0 0 0 3.422-9.271c.425-1.174.383-2.363-.167-3.503-.567-1.171-1.13-2.342-1.739-3.489zm-.328 6.597c-1.168 2.9-2.266 5.83-3.376 8.752-.39 1.025-1.079 1.524-2.199 1.529-.104.002-1.42.008-2.138.012-.719-.004-2.034-.01-2.138-.012-1.12-.005-1.81-.504-2.199-1.529-1.11-2.922-2.208-5.853-3.376-8.752-.418-1.041-.19-1.896.275-2.844.488-.992.774-1.402 1.156-2.199.601-1.252 1.616-1.722 2.945-1.687H29.14c1.33-.035 2.344.435 2.944 1.687.383.797.668 1.207 1.156 2.199.466.948.694 1.803.275 2.844z" fill="#000"/><path d="M73.722 24.921c.13-.154.2-.307.211-.46.01-.158-.02-.352-.094-.586-.074-.23-.22-.506-.438-.83a3.36 3.36 0 0 0-.646-.74 1.052 1.052 0 0 0-.71-.244c-.258.008-.607.162-1.05.461l-2.112 1.416c-.027.014-.066.018-.095.031-.165.084-.278.234-.339.455-.062.216-.094.507-.094.873v2.06a5.354 5.354 0 0 1-1.957.348c-1.043 0-1.975-.414-2.797-1.243-.82-.828-1.23-1.835-1.23-3.021s.404-2.143 1.211-2.877c.81-.732 1.732-1.1 2.773-1.1.795 0 1.48.189 2.057.566.574.375.992.564 1.252.564.438 0 .924-.363 1.46-1.088.313-.439.472-.826.472-1.162 0-.336-.186-.639-.555-.914-1.438-1.068-2.965-1.604-4.583-1.604-2.08 0-3.89.73-5.424 2.189-1.533 1.457-2.3 3.277-2.3 5.455s.754 4.037 2.26 5.576c1.506 1.541 3.281 2.314 5.32 2.314 2.304 0 4.027-.596 5.18-1.789.383-.398.574-.812.574-1.254v-2.135l.837-.562c.4-.268.67-.502.817-.699zm9.438-3.448c0 .605-.199 1.061-.6 1.367-.4.305-.804.453-1.206.453h-2.65v-3.666h2.61c.43 0 .845.156 1.245.467.402.311.601.772.601 1.379zm3.502 7.11a155.527 155.527 0 0 1-1.406-3.256c1.035-1.01 1.55-2.295 1.55-3.854 0-.898-.178-1.715-.533-2.447-.362-.732-.816-1.314-1.37-1.74-1.147-.885-2.328-1.324-3.548-1.324H76.88c-.883 0-1.424.184-1.617.557a1.634 1.634 0 0 0-.193.549c-.02.16-.03.398-.03.715v11.501c0 .488.04.846.121 1.08.168.51.731.766 1.7.766.884 0 1.423-.188 1.613-.559.113-.207.18-.393.2-.549.02-.16.03-.396.03-.717v-2.344h2.61l.645-.041c.938 2.237 1.478 3.487 1.616 3.754.08.135.208.274.384.405.171.125.392.195.661.195.27 0 .624-.099 1.068-.293.854-.359 1.283-.802 1.283-1.324.003-.221-.098-.58-.309-1.074zm13.08.455c1.132-1.494 1.698-3.15 1.698-4.975v-6.26c0-.482-.043-.844-.123-1.076-.06-.193-.145-.338-.271-.434-.123-.1-.303-.184-.538-.252-.237-.07-.552-.104-.94-.104-.394 0-.725.041-.984.123a1.065 1.065 0 0 0-.604.457c-.14.221-.205.6-.205 1.141v6.344c0 .977-.252 1.84-.748 2.588-.498.748-1.252 1.119-2.262 1.119-.564 0-1.054-.115-1.47-.355a2.313 2.313 0 0 1-.935-.93 4.997 4.997 0 0 1-.62-2.404v-6.217c0-.553-.079-.986-.25-1.307-.093-.203-.276-.352-.534-.436-.266-.082-.617-.123-1.06-.123-.442 0-.794.041-1.057.123-.264.084-.45.232-.562.436a1.545 1.545 0 0 0-.193.551 6.108 6.108 0 0 0-.033.734v6.238c0 1.852.56 3.51 1.678 4.977.54.718 1.244 1.298 2.106 1.74.861.44 1.821.662 2.878.662 1.057 0 2.021-.222 2.893-.654.87-.435 1.584-1.003 2.136-1.706zm10.107-4.19l.248.514h-3.252l.42-.869 1.193-2.482 1.029 2.096.082.176.28.565zm6.235 4.811c0-.236-.116-.588-.351-1.059l-5.596-11.564c-.361-.719-.912-1.074-1.66-1.074-.344 0-.67.094-.98.289a1.741 1.741 0 0 0-.691.766L101.207 28.6c-.237.472-.354.822-.354 1.06 0 .496.399.938 1.205 1.324.467.233.842.354 1.104.354.269 0 .491-.065.663-.199.173-.133.297-.26.378-.381.075-.125.18-.324.317-.604l.508-1.045h-.006l.084-.174h6.726l.062.127.084.172.441.92c.135.279.243.484.318.621.076.143.199.273.378.396.171.123.392.186.659.186.271 0 .642-.119 1.11-.352.801-.397 1.2-.85 1.2-1.346z" fill="#fff"/></svg>
